# Blender v3.2.1 OBJ File: 'Character Running.blend'
# www.blender.org
o Cube
v 0.163812 0.020505 -0.144308
v 0.179254 0.020505 0.121394
v -0.088268 0.020505 -0.165935
v -0.090358 0.020505 0.158347
v -0.099568 0.983495 0.302822
v 0.211363 1.043807 0.214302
v -0.093865 0.984601 -0.184661
v 0.181975 1.038106 -0.104422
v 0.223292 0.020505 -0.001989
v -0.171776 0.020505 -0.002840
v 0.355623 1.056512 0.059309
v -0.265997 0.959051 0.057815
v -0.098156 0.835855 0.280672
v -0.093006 0.836791 -0.181790
v 0.179190 0.882093 -0.110537
v 0.206440 0.886920 0.200058
v 0.335335 0.897677 0.049911
v -0.251551 0.815158 0.048516
vt 0.431367 0.398957
vt 0.429974 0.338702
vt 0.453019 0.393437
vt 0.391705 0.404950
vt 0.400811 0.347458
vt 0.411659 0.401910
vt 0.371387 0.349412
vt 0.388400 0.348584
vt 0.437843 0.334663
vt 0.465431 0.387926
vt 0.476961 0.378111
vt 0.446413 0.328822
vt 0.412870 0.345185
vt 0.413812 0.412270
vt 0.435112 0.408883
vt 0.482823 0.386650
vt 0.457627 0.403488
vt 0.470847 0.397376
vt 0.391750 0.415851
vt 0.372272 0.407265
vt 0.371133 0.417284
vn 0.2696 -0.0955 0.9582
vn -0.8208 -0.0456 -0.5694
vn 0.0855 -0.0189 -0.9962
vn 0.7566 -0.1345 0.6399
vn 0.9227 -0.0014 -0.3856
vn -0.8271 -0.0911 0.5546
vn -0.8193 -0.0927 0.5658
vn 0.7159 0.0146 -0.6981
vn 0.7309 -0.1330 0.6694
vn 0.2559 -0.0173 -0.9666
vn 0.2897 -0.0956 0.9523
vn 0.1343 -0.1458 0.9802
vn -0.8900 -0.0140 -0.4557
vn 0.2479 0.0335 -0.9682
vn 0.9401 -0.0600 0.3355
vn 0.7182 -0.0507 -0.6940
vn -0.8864 -0.1179 0.4477
vn -0.8236 -0.1185 0.5547
vn 0.6879 -0.0450 -0.7245
vn 0.7591 -0.0824 0.6457
vn 0.2733 0.0328 -0.9614
vn -0.8145 -0.0160 -0.5799
vn 0.2752 -0.1401 0.9511
s off
f 13/1/1 2/2/1 16/3/1
f 14/4/2 10/5/2 18/6/2
f 14/4/3 1/7/3 3/8/3
f 16/3/4 9/9/4 17/10/4
f 15/11/5 9/9/5 1/12/5
f 18/6/6 4/13/6 13/1/6
f 12/14/7 13/1/7 5/15/7
f 8/16/8 17/10/8 15/11/8
f 6/17/9 17/10/9 11/18/9
f 7/19/10 15/20/10 14/4/10
f 12/14/2 14/4/2 18/6/2
f 5/15/11 16/3/11 6/17/11
f 13/1/12 4/13/12 2/2/12
f 14/4/13 3/8/13 10/5/13
f 14/4/14 15/20/14 1/7/14
f 16/3/15 2/2/15 9/9/15
f 15/11/16 17/10/16 9/9/16
f 18/6/17 10/5/17 4/13/17
f 12/14/18 18/6/18 13/1/18
f 8/16/19 11/18/19 17/10/19
f 6/17/20 16/3/20 17/10/20
f 7/19/21 8/21/21 15/20/21
f 12/14/22 7/19/22 14/4/22
f 5/15/23 13/1/23 16/3/23
