# Blender v3.2.1 OBJ File: 'Character Running.blend'
# www.blender.org
mtllib lower_arm.mtl
o Cube
v -0.375552 0.298582 0.079761
v -0.256769 0.283179 0.188829
v -0.110264 0.200618 0.166249
v -0.288131 0.302696 -0.038892
v -0.139371 0.218864 -0.054175
v -0.080437 0.124129 0.046712
v -0.190625 0.775633 -0.074564
v -0.420847 0.325175 0.091319
v -0.269231 0.302338 0.237511
v -0.080707 0.189356 0.209745
v -0.323158 0.303070 -0.079700
v -0.136766 0.191315 -0.100290
v -0.041019 0.087617 0.044396
v 0.238698 0.589859 0.098125
v 0.280661 0.458400 -0.138846
v 0.157962 1.242669 -0.265765
v 0.210788 1.122469 -0.436935
v 0.281422 1.218570 -0.471417
v 0.534934 1.047153 -0.108253
v 0.271289 1.114788 -0.030705
v 0.327616 1.194234 -0.069895
v 0.616837 0.984811 -0.307278
v 0.574203 0.938873 -0.323724
v 0.420605 0.976726 -0.462806
v 0.485677 1.075370 -0.496377
v 0.091612 1.153947 -0.225621
v 0.482729 0.967423 -0.069012
v 0.518407 0.845855 -0.284786
v -0.058469 0.749861 -0.304964
v 0.005471 0.740799 0.139765
v 0.172747 0.600797 -0.333029
v -0.336163 0.490869 0.030301
v 0.036781 0.336675 0.168687
v 0.077307 0.224004 -0.023007
v -0.225796 0.467415 -0.162560
v -0.168186 0.463619 0.201557
v -0.022916 0.341937 -0.185899
v -0.378099 0.496475 0.031514
v -0.446062 0.360069 0.097517
v -0.270469 0.330359 0.275832
v -0.051363 0.191364 0.245240
v -0.349705 0.303885 -0.119132
v -0.136436 0.168046 -0.144355
v -0.003670 0.068848 0.039109
v 0.048733 0.314859 0.209725
v 0.091099 0.181654 -0.031635
v -0.259374 0.434706 -0.195032
v -0.181207 0.464361 0.247179
v -0.045569 0.298131 -0.218511
vt 0.583812 0.882240
vt 0.580990 0.894621
vt 0.577498 0.892547
vt 0.589793 0.848038
vt 0.593357 0.858497
vt 0.590309 0.858245
vt 0.567901 0.907556
vt 0.566155 0.903035
vt 0.587357 0.870334
vt 0.590576 0.871171
vt 0.585216 0.835607
vt 0.582625 0.838865
vt 0.587454 0.832368
vt 0.592995 0.847459
vt 0.599114 0.888484
vt 0.602373 0.872207
vt 0.604818 0.873197
vt 0.595787 0.858819
vt 0.593834 0.904485
vt 0.597581 0.905203
vt 0.587085 0.883018
vt 0.583725 0.896694
vt 0.605296 0.843543
vt 0.604143 0.825324
vt 0.607976 0.826765
vt 0.665159 0.838461
vt 0.635008 0.821905
vt 0.671046 0.820240
vt 0.657833 0.907347
vt 0.626284 0.877566
vt 0.664759 0.884111
vt 0.616376 0.936552
vt 0.658866 0.928002
vt 0.652272 0.947723
vt 0.629624 0.858866
vt 0.667987 0.860033
vt 0.623169 0.915799
vt 0.675053 0.886150
vt 0.677936 0.859717
vt 0.667433 0.911173
vt 0.667893 0.931854
vt 0.674435 0.836890
vt 0.661707 0.950890
vt 0.680067 0.818655
vt 0.628234 0.840047
vt 0.620359 0.896993
vt 0.589800 0.923213
vt 0.606889 0.858291
vt 0.604705 0.858491
vt 0.596458 0.888216
vt 0.594982 0.846959
vt 0.602568 0.843066
vt 0.569793 0.911549
vt 0.585556 0.922017
vt 0.593332 0.871774
vt 0.589065 0.883655
vt 0.679574 0.838500
vn 0.0160 -0.9996 -0.0229
vn -0.6684 -0.6909 0.2753
vn -0.4020 -0.7959 0.4527
vn -0.4771 -0.8734 0.0981
vn -0.3566 -0.8969 0.2617
vn -0.9087 -0.3789 0.1750
vn -0.8558 -0.4601 0.2366
vn 0.1371 0.9903 0.0231
vn -0.4274 -0.8112 0.3992
vn -0.4509 0.8178 -0.3575
vn -0.1194 -0.9910 0.0599
vn 0.8407 -0.0323 -0.5406
vn 0.4871 -0.5542 -0.6750
vn -0.5049 0.6285 0.5917
vn -0.2380 -0.1730 -0.9557
vn 0.8482 -0.3891 0.3595
vn -0.7776 0.3862 -0.4961
vn 0.3129 0.2080 0.9267
vn 0.3334 0.2315 0.9139
vn -0.7709 0.3844 -0.5079
vn 0.8617 -0.3727 0.3443
vn -0.2360 -0.1699 -0.9568
vn -0.4970 0.6379 0.5883
vn 0.4820 -0.5501 -0.6820
vn 0.3536 -0.6497 -0.6729
vn -0.5918 0.5099 0.6243
vn -0.2981 -0.2913 -0.9090
vn 0.7652 -0.4958 0.4106
vn -0.8307 0.2384 -0.5031
vn 0.2295 0.0872 0.9694
vn 0.2222 0.0988 0.9700
vn -0.8193 0.2734 -0.5039
vn 0.8112 -0.4399 0.3852
vn -0.2963 -0.3084 -0.9040
vn -0.5888 0.5238 0.6156
vn 0.3709 -0.6417 -0.6713
vn 0.5380 0.7992 0.2682
vn -0.4326 -0.7986 0.4185
vn 0.2181 0.5077 -0.8335
vn -0.3575 -0.8313 0.4257
vn 0.9112 0.4092 -0.0479
vn -0.6217 -0.5486 0.5591
vn -0.5334 -0.8223 -0.1984
vn -0.6426 -0.7117 0.2837
vn -0.4458 -0.8127 0.3752
vn -0.4791 -0.8516 0.2125
vn -0.4230 -0.8531 0.3054
vn -0.6800 -0.7295 -0.0729
vn -0.4604 -0.8765 -0.1408
vn 0.1332 0.9908 0.0259
vn -0.3990 -0.7463 0.5328
vn 0.1241 0.9719 -0.1999
vn -0.8090 -0.5458 -0.2183
vn 0.8460 0.3563 -0.3966
vn 0.6622 -0.3843 -0.6433
vn 0.5686 -0.6888 0.4497
vn 0.4866 -0.5532 -0.6761
vn -0.5241 0.6229 0.5808
vn -0.2285 -0.1741 -0.9578
vn 0.8488 -0.3840 0.3633
vn -0.7807 0.3864 -0.4911
vn 0.3017 0.2095 0.9301
vn 0.3230 0.2245 0.9194
vn -0.7873 0.3634 -0.4981
vn 0.8523 -0.3826 0.3565
vn -0.4960 0.6407 0.5860
vn 0.4723 -0.5661 -0.6756
vn 0.3519 -0.6419 -0.6813
vn -0.5651 0.5236 0.6376
vn -0.2853 -0.2914 -0.9131
vn 0.7757 -0.4587 0.4336
vn -0.8301 0.2386 -0.5040
vn 0.2094 0.0859 0.9740
vn 0.1893 0.0831 0.9784
vn -0.8693 0.2186 -0.4433
vn 0.7507 -0.4770 0.4572
vn -0.3049 -0.3116 -0.9000
vn -0.5366 0.5689 0.6232
vn 0.3533 -0.6918 -0.6298
vn 0.5558 0.8185 0.1454
vn -0.4846 -0.8182 0.3093
vn 0.2547 0.5370 -0.8042
vn -0.4170 -0.8204 0.3911
vn 0.9506 0.3105 -0.0045
vn -0.5855 -0.6633 0.4661
usemtl Material
s off
f 1/1/1 11/2/1 4/3/1
f 6/4/2 10/5/2 3/6/2
f 4/3/3 12/7/3 5/8/3
f 10/5/4 2/9/4 3/6/4
f 9/10/5 1/1/5 2/9/5
f 12/11/6 6/4/6 5/12/6
f 43/13/7 13/14/7 12/11/7
f 32/15/8 48/16/8 36/17/8
f 41/18/9 9/10/9 10/5/9
f 47/19/10 32/15/10 35/20/10
f 8/21/11 42/22/11 11/2/11
f 34/23/12 49/24/12 37/25/12
f 28/26/13 31/27/13 24/28/13
f 26/29/14 30/30/14 20/31/14
f 31/32/15 17/33/15 24/34/15
f 14/35/16 28/26/16 27/36/16
f 29/37/17 26/29/17 17/33/17
f 20/31/18 14/35/18 27/36/18
f 21/38/19 27/36/19 19/39/19
f 17/33/20 16/40/20 18/41/20
f 19/39/21 28/26/21 23/42/21
f 24/34/22 18/41/22 25/43/22
f 26/29/23 21/38/23 16/40/23
f 23/42/24 24/28/24 25/44/24
f 15/45/25 37/25/25 31/27/25
f 7/46/26 36/17/26 30/30/26
f 37/47/27 29/37/27 31/32/27
f 33/48/28 15/45/28 14/35/28
f 35/20/29 7/46/29 29/37/29
f 30/30/30 33/48/30 14/35/30
f 48/16/31 41/18/31 45/49/31
f 42/22/32 38/50/32 47/19/32
f 45/49/33 44/51/33 46/52/33
f 43/53/34 47/19/34 49/54/34
f 38/50/35 40/55/35 48/16/35
f 46/52/36 43/13/36 49/24/36
f 36/17/37 45/49/37 33/48/37
f 11/2/38 43/53/38 12/7/38
f 49/54/39 35/20/39 37/47/39
f 44/51/40 10/5/40 13/14/40
f 45/49/41 34/23/41 33/48/41
f 9/10/42 39/56/42 8/21/42
f 1/1/43 8/21/43 11/2/43
f 6/4/44 13/14/44 10/5/44
f 4/3/45 11/2/45 12/7/45
f 10/5/46 9/10/46 2/9/46
f 9/10/47 8/21/47 1/1/47
f 12/11/48 13/14/48 6/4/48
f 43/13/49 44/51/49 13/14/49
f 32/15/50 38/50/50 48/16/50
f 41/18/51 40/55/51 9/10/51
f 47/19/52 38/50/52 32/15/52
f 8/21/53 39/56/53 42/22/53
f 34/23/54 46/52/54 49/24/54
f 22/57/55 23/42/55 25/44/55
f 19/39/56 23/42/56 22/57/56
f 28/26/57 15/45/57 31/27/57
f 26/29/58 7/46/58 30/30/58
f 31/32/59 29/37/59 17/33/59
f 14/35/60 15/45/60 28/26/60
f 29/37/61 7/46/61 26/29/61
f 20/31/62 30/30/62 14/35/62
f 21/38/63 20/31/63 27/36/63
f 17/33/64 26/29/64 16/40/64
f 19/39/65 27/36/65 28/26/65
f 24/34/22 17/33/22 18/41/22
f 26/29/66 20/31/66 21/38/66
f 23/42/67 28/26/67 24/28/67
f 15/45/68 34/23/68 37/25/68
f 7/46/69 32/15/69 36/17/69
f 37/47/70 35/20/70 29/37/70
f 33/48/71 34/23/71 15/45/71
f 35/20/72 32/15/72 7/46/72
f 30/30/73 36/17/73 33/48/73
f 48/16/74 40/55/74 41/18/74
f 42/22/75 39/56/75 38/50/75
f 45/49/76 41/18/76 44/51/76
f 43/53/77 42/22/77 47/19/77
f 38/50/78 39/56/78 40/55/78
f 46/52/79 44/51/79 43/13/79
f 36/17/80 48/16/80 45/49/80
f 11/2/81 42/22/81 43/53/81
f 49/54/82 47/19/82 35/20/82
f 44/51/83 41/18/83 10/5/83
f 45/49/84 46/52/84 34/23/84
f 9/10/85 40/55/85 39/56/85
