# Blender v3.2.1 OBJ File: 'Character Running.blend'
# www.blender.org
o Cube
v -0.080154 0.840635 0.079761
v 0.038629 0.825232 0.188829
v 0.185134 0.742671 0.166249
v 0.007267 0.844748 -0.038892
v 0.156027 0.760917 -0.054175
v 0.214961 0.666182 0.046712
v -0.233897 0.438065 0.087323
v -0.143203 0.426304 0.310375
v -0.054228 0.409036 0.264197
v -0.167149 0.441206 -0.155330
v -0.076452 0.422968 -0.186585
v -0.031455 0.350635 0.019737
v -0.134616 0.053969 0.073962
v -0.095839 0.084940 0.210694
v -0.051813 0.054268 0.182386
v -0.110682 0.081209 -0.074784
v -0.065629 0.050844 -0.093944
v -0.020431 0.041145 0.032532
v -0.059962 0.673419 -0.069024
v 0.054693 0.619968 -0.088252
v -0.034151 0.657357 0.217470
v -0.131907 0.670034 0.080252
v 0.103195 0.542004 0.038674
v 0.205500 0.413525 0.385222
v 0.109740 0.683083 0.276204
v 0.186534 0.634261 0.251865
v 0.212496 0.592539 0.176299
v -0.001194 0.471936 0.323427
v 0.048728 0.443141 0.287162
v 0.068192 0.420128 0.181471
v 0.065516 0.580519 0.300898
v 0.148822 0.511158 0.187616
v 0.246109 0.395103 0.380653
v 0.241963 0.384372 0.342929
v 0.149194 0.339410 0.398426
v 0.169225 0.306320 0.387765
v 0.177735 0.316157 0.338261
v 0.174672 0.378477 0.423050
v 0.233111 0.328642 0.332573
v 0.227771 0.311012 0.409408
v 0.214691 0.731409 0.209745
vt 0.723940 0.245226
vt 0.732496 0.271632
vt 0.717693 0.265449
vt 0.703376 0.241387
vt 0.703033 0.261810
vt 0.692348 0.257092
vt 0.709774 0.218653
vt 0.708927 0.242958
vt 0.690225 0.230835
vt 0.681253 0.248181
vt 0.645843 0.233407
vt 0.655010 0.244497
vt 0.639536 0.251842
vt 0.674618 0.233846
vt 0.701706 0.214897
vt 0.705681 0.219491
vt 0.695955 0.210375
vt 0.704455 0.207250
vt 0.734517 0.217355
vt 0.743010 0.247208
vt 0.669842 0.221845
vt 0.693432 0.207250
vt 0.663262 0.214926
vt 0.711812 0.281241
vt 0.697770 0.278702
vt 0.663465 0.228011
vt 0.666561 0.248804
vt 0.671824 0.261012
vt 0.682826 0.271162
vt 0.725878 0.288441
vt 0.767016 0.315688
vt 0.754774 0.297510
vt 0.772095 0.310484
vt 0.756532 0.288915
vt 0.770897 0.284032
vt 0.773738 0.292430
vt 0.772007 0.302099
vt 0.755141 0.320412
vt 0.751722 0.302906
vt 0.764383 0.323135
vt 0.656535 0.258592
vt 0.748321 0.297846
vt 0.745001 0.291712
vt 0.751715 0.292719
vt 0.743925 0.301062
vt 0.747699 0.302419
vt 0.752784 0.299942
vt 0.743621 0.318300
vt 0.756225 0.283033
vt 0.773002 0.278958
vt 0.589793 0.848038
vt 0.593357 0.858497
vt 0.590309 0.858245
vt 0.587357 0.870334
vt 0.722283 0.215937
vt 0.659109 0.236641
vt 0.669760 0.241835
vt 0.754167 0.285531
vt 0.754249 0.292912
vt 0.660334 0.248733
vt 0.667284 0.230905
vt 0.743621 0.297327
vn -0.7486 0.3464 0.5653
vn 0.0449 0.4221 -0.9055
vn -0.3607 -0.2572 -0.8965
vn -0.9427 -0.2065 -0.2620
vn 0.7101 -0.4457 -0.5451
vn -0.4066 0.3221 0.8549
vn 0.8012 -0.5377 -0.2626
vn -0.7851 0.4988 -0.3671
vn -0.5190 -0.8462 0.1206
vn -0.0866 -0.9939 0.0689
vn -0.9058 -0.2297 0.3562
vn 0.9747 -0.0269 -0.2220
vn 0.9952 -0.0155 0.0964
vn 0.4205 -0.2001 0.8850
vn -0.7483 0.3882 -0.5379
vn -0.2249 0.4530 0.8627
vn 0.7104 -0.6176 -0.3375
vn 0.6630 -0.3122 -0.6804
vn 0.0233 0.2191 -0.9754
vn -0.5985 0.3798 0.7054
vn 0.9460 0.2733 0.1741
vn -0.7061 -0.7077 0.0240
vn 0.5060 -0.4942 -0.7069
vn -0.1939 0.3079 0.9315
vn 0.9747 0.1860 0.1242
vn 0.4486 0.6201 0.6436
vn 0.2517 -0.9358 0.2470
vn 0.1832 -0.7514 0.6339
vn 0.1950 -0.9588 -0.2065
vn -0.2630 -0.3858 0.8843
vn 0.3324 0.5412 0.7724
vn 0.9872 -0.1443 -0.0675
vn 0.5626 -0.4516 -0.6925
vn -0.3024 0.3682 0.8792
vn -0.5922 -0.7820 -0.1943
vn 0.5249 0.4727 0.7078
vn -0.6684 -0.6909 0.2753
vn -0.4771 -0.8734 0.0981
vn -0.7867 0.5107 0.3468
vn -0.2169 0.4265 -0.8781
vn -0.5046 -0.2224 -0.8342
vn -0.9509 -0.2389 -0.1968
vn 0.8537 -0.4046 -0.3280
vn -0.4070 0.3759 0.8325
vn 0.7141 -0.6092 -0.3449
vn -0.8913 0.3846 -0.2402
vn -0.1825 -0.9615 -0.2055
vn -0.4017 -0.8620 0.3092
vn -0.9159 -0.2477 0.3159
vn 0.9420 0.0197 -0.3351
vn 0.9786 0.0432 0.2012
vn 0.4273 -0.2004 0.8816
vn -0.8714 0.2632 -0.4140
vn -0.3814 0.4066 0.8302
vn 0.7153 -0.6077 -0.3450
vn 0.6303 -0.5306 -0.5668
vn -0.0708 0.1997 -0.9773
vn -0.7804 0.2384 0.5780
vn 0.9751 0.1606 -0.1528
vn -0.6255 -0.7377 -0.2541
vn 0.8443 -0.0347 -0.5347
vn 0.2543 0.5973 0.7606
vn 0.9560 0.1892 0.2240
vn 0.5419 0.5252 0.6562
vn 0.2537 -0.9344 0.2502
vn 0.0849 -0.7201 0.6887
vn 0.1409 -0.9754 -0.1696
vn -0.2793 -0.4435 0.8517
vn 0.4671 0.1932 0.8628
vn 0.9783 -0.2063 0.0207
vn 0.0549 -0.6053 -0.7941
vn -0.5492 -0.1589 0.8204
vn -0.8051 -0.5549 0.2096
vn 0.3210 0.5098 0.7982
s off
f 7/1/1 21/2/1 22/3/1
f 11/4/2 19/5/2 20/6/2
f 11/4/3 16/7/3 10/8/3
f 16/7/4 7/1/4 10/8/4
f 12/9/5 20/6/5 23/10/5
f 21/11/6 25/12/6 2/13/6
f 23/10/7 30/14/7 12/9/7
f 10/8/8 22/3/8 19/5/8
f 18/15/9 16/7/9 17/16/9
f 15/17/10 13/18/10 18/15/10
f 7/1/11 14/19/11 8/20/11
f 12/9/12 17/16/12 11/4/12
f 15/17/13 12/9/13 9/21/13
f 14/22/14 9/21/14 8/23/14
f 19/5/15 1/24/15 4/25/15
f 28/26/16 21/11/16 8/23/16
f 27/27/17 23/10/17 6/28/17
f 6/28/18 20/6/18 5/29/18
f 20/6/19 4/25/19 5/29/19
f 1/24/20 21/2/20 2/30/20
f 26/31/21 34/32/21 27/33/21
f 37/34/22 29/35/22 30/36/22
f 34/32/23 32/37/23 27/33/23
f 31/38/24 24/39/24 25/40/24
f 3/41/25 27/27/25 6/28/25
f 25/12/26 3/41/26 2/13/26
f 30/14/27 9/21/27 12/9/27
f 9/21/28 28/26/28 8/23/28
f 40/42/29 37/43/29 39/44/29
f 35/45/30 40/42/30 38/46/30
f 38/46/31 33/47/31 24/39/31
f 33/47/32 39/44/32 34/32/32
f 32/37/33 37/34/33 30/36/33
f 28/48/34 38/46/34 31/38/34
f 29/35/35 35/49/35 28/50/35
f 24/39/36 26/31/36 25/40/36
f 6/51/37 41/52/37 3/53/37
f 41/52/38 2/54/38 3/53/38
f 7/1/39 8/20/39 21/2/39
f 11/4/40 10/8/40 19/5/40
f 11/4/41 17/16/41 16/7/41
f 16/7/42 13/55/42 7/1/42
f 12/9/43 11/4/43 20/6/43
f 21/11/44 31/56/44 25/12/44
f 23/10/45 32/57/45 30/14/45
f 10/8/46 7/1/46 22/3/46
f 18/15/47 13/18/47 16/7/47
f 15/17/48 14/22/48 13/18/48
f 7/1/49 13/55/49 14/19/49
f 12/9/50 18/15/50 17/16/50
f 15/17/51 18/15/51 12/9/51
f 14/22/52 15/17/52 9/21/52
f 19/5/53 22/3/53 1/24/53
f 28/26/54 31/56/54 21/11/54
f 27/27/55 32/57/55 23/10/55
f 6/28/56 23/10/56 20/6/56
f 20/6/57 19/5/57 4/25/57
f 1/24/58 22/3/58 21/2/58
f 26/31/59 33/47/59 34/32/59
f 37/34/60 36/58/60 29/35/60
f 34/32/61 39/59/61 32/37/61
f 31/38/62 38/46/62 24/39/62
f 3/41/63 26/60/63 27/27/63
f 25/12/64 26/60/64 3/41/64
f 30/14/65 29/61/65 9/21/65
f 9/21/66 29/61/66 28/26/66
f 40/42/67 36/62/67 37/43/67
f 35/45/68 36/62/68 40/42/68
f 38/46/69 40/42/69 33/47/69
f 33/47/70 40/42/70 39/44/70
f 32/37/71 39/59/71 37/34/71
f 28/48/72 35/45/72 38/46/72
f 29/35/73 36/58/73 35/49/73
f 24/39/74 33/47/74 26/31/74
