# Blender v3.2.1 OBJ File: 'Character Running.blend'
# www.blender.org
mtllib upper_arm.mtl
o Cube
v -0.420163 1.079141 0.280826
v -0.297516 1.909695 0.025961
v -0.402497 1.684240 0.408895
v -0.436472 1.170266 -0.422429
v -0.434517 1.717854 -0.334057
v -0.236106 0.846856 -0.064497
v -0.109532 1.530386 -0.288398
v -0.124351 1.442152 0.305402
v -0.192894 1.155971 -0.341958
v 0.788353 0.459947 -0.128839
v 0.835910 0.360053 -0.146407
v 0.712450 0.335954 -0.352059
v 0.414232 0.219205 0.033792
v 0.458938 0.164537 0.011104
v 0.666256 0.311618 0.049463
v 0.377035 0.102195 -0.187920
v 0.419669 0.056257 -0.204366
v 0.508195 0.192754 -0.377019
v 0.307937 0.959969 -0.355201
v 0.276806 0.886269 0.218079
v 0.126986 0.661542 -0.394497
v 0.073843 1.726199 0.020131
v -0.228970 1.072963 0.255080
v -0.147433 0.824695 -0.061748
v 0.493734 1.077719 -0.056056
v 0.085791 0.592155 0.161261
v 0.118412 0.392880 -0.134235
v 0.652025 0.430699 -0.352371
v 0.614764 0.383902 0.073417
v 0.448966 0.263543 -0.379413
vt 0.452127 0.774749
vt 0.451634 0.754904
vt 0.457266 0.773138
vt 0.454215 0.847788
vt 0.456648 0.822399
vt 0.464268 0.847422
vt 0.463046 0.890078
vt 0.463808 0.868102
vt 0.469994 0.887138
vt 0.453764 0.795965
vt 0.446950 0.797484
vt 0.454982 0.870228
vt 0.447542 0.822597
vt 0.335290 0.799749
vt 0.337940 0.838915
vt 0.306313 0.843397
vt 0.315424 0.880922
vt 0.354194 0.899038
vt 0.328461 0.915028
vt 0.366153 0.775868
vt 0.350187 0.807562
vt 0.369409 0.935943
vt 0.378629 0.917040
vt 0.345278 0.871390
vt 0.360909 0.741583
vt 0.374494 0.777127
vt 0.393537 0.827398
vt 0.398491 0.858118
vt 0.406980 0.885423
vt 0.401962 0.799904
vt 0.425070 0.906314
vt 0.406263 0.752426
vt 0.419736 0.777573
vt 0.444528 0.755267
vt 0.339572 0.741583
vn -0.6622 -0.3843 -0.6433
vn 0.7097 0.2202 0.6692
vn 0.0915 0.0429 -0.9949
vn -0.5893 -0.6695 0.4522
vn 0.7285 0.4630 -0.5049
vn 0.0450 -0.2852 0.9574
vn 0.1762 -0.2087 0.9620
vn 0.4745 0.6891 -0.5477
vn 0.0512 -0.8158 0.5761
vn 0.3165 0.0649 -0.9464
vn 0.2928 0.5681 0.7691
vn -0.1394 -0.6506 -0.7465
vn 0.0205 -0.1407 0.9898
vn 0.6178 0.5211 -0.5888
vn -0.7905 -0.5641 0.2386
vn 0.0201 0.1185 -0.9927
vn 0.6092 0.3086 0.7305
vn -0.7918 -0.4117 -0.4511
vn 0.0695 -0.2326 0.9701
vn 0.6769 0.4369 -0.5924
vn -0.6208 -0.6800 0.3901
vn 0.0981 0.0417 -0.9943
vn 0.6873 0.2473 0.6829
vn -0.6386 -0.4533 -0.6218
vn -0.5772 -0.5046 -0.6420
vn 0.6824 0.2597 0.6833
vn 0.0886 0.0532 -0.9946
vn -0.5686 -0.6888 0.4497
vn 0.7450 0.4425 -0.4991
vn 0.0650 -0.3367 0.9394
vn 0.1262 -0.1690 0.9775
vn 0.3329 0.6940 -0.6383
vn -0.2162 -0.7947 0.5671
vn 0.2243 0.1545 -0.9622
vn 0.6658 0.5488 0.5056
vn 0.1971 -0.6700 -0.7157
vn 0.0015 -0.1906 0.9817
vn 0.5997 0.4648 -0.6514
vn -0.7977 -0.5371 0.2742
vn 0.0269 0.1357 -0.9904
vn 0.6140 0.3305 0.7167
vn -0.7821 -0.4615 -0.4187
vn 0.0462 -0.2864 0.9570
vn 0.7502 0.4181 -0.5122
vn -0.6275 -0.6402 0.4431
vn 0.1082 0.0650 -0.9920
vn 0.6682 0.2475 0.7016
vn -0.6290 -0.5304 -0.5683
usemtl Material
s off
f 16/1/1 18/2/1 17/3/1
f 10/4/2 15/5/2 11/6/2
f 30/7/3 12/8/3 18/9/3
f 16/1/4 14/10/4 13/11/4
f 10/4/5 12/8/5 28/12/5
f 13/11/6 15/5/6 29/13/6
f 1/14/7 8/15/7 3/16/7
f 2/17/8 7/18/8 5/19/8
f 6/20/9 23/21/9 1/14/9
f 4/22/10 7/18/10 9/23/10
f 2/17/11 8/15/11 22/24/11
f 6/20/12 9/25/12 24/26/12
f 23/21/13 20/27/13 8/15/13
f 7/18/14 25/28/14 19/29/14
f 24/26/15 26/30/15 23/21/15
f 9/23/16 19/29/16 21/31/16
f 8/15/17 25/28/17 22/24/17
f 24/26/18 21/32/18 27/33/18
f 26/30/19 29/13/19 20/27/19
f 25/28/20 28/12/20 19/29/20
f 27/33/21 13/11/21 26/30/21
f 21/31/22 28/12/22 30/7/22
f 25/28/23 29/13/23 10/4/23
f 27/33/24 30/34/24 16/1/24
f 16/1/25 30/34/25 18/2/25
f 10/4/26 29/13/26 15/5/26
f 30/7/27 28/12/27 12/8/27
f 16/1/28 17/3/28 14/10/28
f 10/4/29 11/6/29 12/8/29
f 13/11/30 14/10/30 15/5/30
f 1/14/31 23/21/31 8/15/31
f 2/17/32 22/24/32 7/18/32
f 6/20/33 24/26/33 23/21/33
f 4/22/34 5/19/34 7/18/34
f 2/17/35 3/16/35 8/15/35
f 6/20/36 4/35/36 9/25/36
f 23/21/37 26/30/37 20/27/37
f 7/18/38 22/24/38 25/28/38
f 24/26/39 27/33/39 26/30/39
f 9/23/40 7/18/40 19/29/40
f 8/15/41 20/27/41 25/28/41
f 24/26/42 9/25/42 21/32/42
f 26/30/43 13/11/43 29/13/43
f 25/28/44 10/4/44 28/12/44
f 27/33/45 16/1/45 13/11/45
f 21/31/46 19/29/46 28/12/46
f 25/28/47 20/27/47 29/13/47
f 27/33/48 21/32/48 30/34/48
